<svg id="Layer_1" data-name="Layer 1" xmlns="http://www.w3.org/2000/svg" viewBox="0 0 284.62 97.87"><defs><style>.cls-1{fill:#29306e;}.cls-2{fill:#a2a5bc;}</style></defs><path class="cls-1" d="M29,31.5c7.36,0,11.36,4,12,12H34.78c-.39-4.64-1.8-6-5.75-6H27c-4.15,0-5.9,1.66-5.9,6.39V54.22c0,3.91,2,6.15,5.9,6.15h2c3.7,0,5.21-2.15,5.55-6.63H41C40.34,61.49,36.49,66.37,29,66.37H27c-3.85,0-6.83-1.13-9-3.37a12.14,12.14,0,0,1-3.27-8.78V43.89C14.74,35.5,19.42,31.5,27,31.5Z"/><path class="cls-1" d="M46.19,31.85H59.94A9.75,9.75,0,0,1,67,34.72a9.61,9.61,0,0,1,0,13.8,9.76,9.76,0,0,1-7.07,2.88H52.57V66H46.19Zm6.38,13.6h7.37a3.83,3.83,0,0,0,0-7.66H52.57Z"/><path class="cls-1" d="M75.05,31.85h6.39V66H75.05Z"/><path class="cls-1" d="M122,31.51c7.36,0,11.36,4,12,12h-6.29c-.39-4.63-1.8-6-5.75-6h-2c-4.14,0-5.9,1.66-5.9,6.39V54.23c0,3.9,2,6.14,5.9,6.14h2c3.7,0,5.22-2.14,5.56-6.63H134c-.63,7.75-4.48,12.63-11.94,12.63h-2c-3.85,0-6.83-1.12-9-3.37a12.16,12.16,0,0,1-3.27-8.77V43.89c0-8.39,4.68-12.38,12.29-12.38Z"/><path class="cls-1" d="M147.87,31.85h5.26L165.32,66h-6.73l-2.77-7.85H145.19L142.46,66h-6.68Zm5.75,20.33-3.12-8.73h-.1l-3.12,8.73Z"/><path class="cls-1" d="M169.17,31.85h13.75A9.75,9.75,0,0,1,190,34.72a9.59,9.59,0,0,1,0,13.8,9.76,9.76,0,0,1-7.07,2.88h-7.36V66h-6.39Zm6.39,13.6h7.36a3.83,3.83,0,0,0,0-7.65h-7.36Z"/><path class="cls-1" d="M198,31.85h6.39V66H198Z"/><path class="cls-1" d="M208.27,31.85h26.09v5.7h-9.8V66h-6.39V37.55h-9.9Z"/><path class="cls-1" d="M242.5,31.85h5.26L260,66h-6.73l-2.78-7.85H239.82L237.09,66h-6.68Zm5.75,20.33-3.12-8.73H245l-3.12,8.73Z"/><path class="cls-1" d="M263.8,31.85h6.39V60h14.43v6H263.8Z"/><path class="cls-2" d="M97.87,97.87H0V0H97.87ZM4.74,93.13H93.13V4.74H4.74Z"/></svg>